<svg width="96" height="96" viewBox="0 0 96 96" fill="none" xmlns="http://www.w3.org/2000/svg">
<g clip-path="url(#clip0_2240_221)">
<path d="M76.1992 19.64C68.7192 12.12 58.7592 8 48.1592 8C26.3192 8 8.51922 25.8 8.51922 47.64C8.51922 54.64 10.3592 61.44 13.7992 67.44L8.19922 88L29.1992 82.48C34.9992 85.64 41.5192 87.32 48.1592 87.32C69.9992 87.32 87.7992 69.52 87.7992 47.68C87.7992 37.08 83.6792 27.12 76.1992 19.64ZM48.1592 80.6C42.2392 80.6 36.4392 79 31.3592 76L30.1592 75.28L17.6792 78.56L20.9992 66.4L20.1992 65.16C16.9192 59.92 15.1592 53.84 15.1592 47.64C15.1592 29.48 29.9592 14.68 48.1192 14.68C56.9192 14.68 65.1992 18.12 71.3992 24.36C77.6392 30.6 81.0392 38.88 81.0392 47.68C81.1192 65.84 66.3192 80.6 48.1592 80.6ZM66.2392 55.96C65.2392 55.48 60.3592 53.08 59.4792 52.72C58.5592 52.4 57.9192 52.24 57.2392 53.2C56.5592 54.2 54.6792 56.44 54.1192 57.08C53.5592 57.76 52.9592 57.84 51.9592 57.32C50.9592 56.84 47.7592 55.76 43.9992 52.4C41.0392 49.76 39.0792 46.52 38.4792 45.52C37.9192 44.52 38.3992 44 38.9192 43.48C39.3592 43.04 39.9192 42.32 40.3992 41.76C40.8792 41.2 41.0792 40.76 41.3992 40.12C41.7192 39.44 41.5592 38.88 41.3192 38.4C41.0792 37.92 39.0792 33.04 38.2792 31.04C37.4792 29.12 36.6392 29.36 36.0392 29.32C35.4392 29.32 34.7992 29.32 34.1192 29.32C33.4392 29.32 32.3992 29.56 31.4792 30.56C30.5992 31.56 28.0392 33.96 28.0392 38.84C28.0392 43.72 31.5992 48.44 32.0792 49.08C32.5592 49.76 39.0792 59.76 48.9992 64.04C51.3592 65.08 53.1992 65.68 54.6392 66.12C56.9992 66.88 59.1592 66.76 60.8792 66.52C62.7992 66.24 66.7592 64.12 67.5592 61.8C68.3992 59.48 68.3992 57.52 68.1192 57.08C67.8392 56.64 67.2392 56.44 66.2392 55.96Z" fill="white"/>
</g>
<defs>
<clipPath id="clip0_2240_221">
<rect width="96" height="96" fill="white"/>
</clipPath>
</defs>
</svg>
